<?xml version="1.0" encoding="UTF-8"?>
<!DOCTYPE svg PUBLIC "-//W3C//DTD SVG 1.1//EN" "http://www.w3.org/Graphics/SVG/1.1/DTD/svg11.dtd">
<svg xmlns="http://www.w3.org/2000/svg" version="1.1" width="751px" height="221px" style="shape-rendering:geometricPrecision; text-rendering:geometricPrecision; image-rendering:optimizeQuality; fill-rule:evenodd; clip-rule:evenodd" xmlns:xlink="http://www.w3.org/1999/xlink">
<g><path style="opacity:0.99" fill="#63d5ba" d="M 125.5,20.5 C 127.465,27.7605 128.132,35.4271 127.5,43.5C 126.5,43.5 125.5,43.5 124.5,43.5C 123.906,37.2802 123.573,30.9468 123.5,24.5C 123.34,22.6455 124.007,21.3121 125.5,20.5 Z"/></g>
<g><path style="opacity:1" fill="#4cade3" d="M 172.5,39.5 C 171.178,39.67 170.011,39.3366 169,38.5C 168.505,36.5273 168.338,34.5273 168.5,32.5C 169.528,32.0742 170.861,32.0742 172.5,32.5C 173.546,34.8817 173.546,37.2151 172.5,39.5 Z"/></g>
<g><path style="opacity:1" fill="#66dcad" d="M 90.5,38.5 C 89.7611,38.369 89.0944,38.5357 88.5,39C 89.1078,40.231 89.4411,41.5643 89.5,43C 89.3917,44.6811 88.7251,45.8478 87.5,46.5C 87.3734,42.6676 85.54,40.0009 82,38.5C 81.3787,33.4575 83.5454,31.6242 88.5,33C 90.1554,34.4443 90.822,36.2776 90.5,38.5 Z"/></g>
<g><path style="opacity:1" fill="#56bbcf" d="M 168.5,32.5 C 168.338,34.5273 168.505,36.5273 169,38.5C 170.011,39.3366 171.178,39.67 172.5,39.5C 171.469,40.2485 170.302,40.9152 169,41.5C 168.963,43.9739 168.13,45.9739 166.5,47.5C 165.135,45.4324 164.135,43.099 163.5,40.5C 162.583,41.1272 161.583,41.4606 160.5,41.5C 161.287,39.8958 162.62,39.2291 164.5,39.5C 163.68,35.7779 165.013,33.4446 168.5,32.5 Z"/></g>
<g><path style="opacity:1" fill="#59bdcc" d="M 125.5,20.5 C 130.243,19.4019 132.41,21.4019 132,26.5C 131.5,27 131,27.5 130.5,28C 133.034,30.7467 133.034,33.4133 130.5,36C 133.167,38.6667 133.167,41.3333 130.5,44C 128.288,44.7891 126.288,44.6225 124.5,43.5C 125.5,43.5 126.5,43.5 127.5,43.5C 128.132,35.4271 127.465,27.7605 125.5,20.5 Z"/></g>
<g><path style="opacity:1" fill="#60d4bc" d="M 166.5,47.5 C 164.896,48.287 164.229,49.6203 164.5,51.5C 163.504,51.4142 162.671,51.7476 162,52.5C 161.832,49.8232 160.999,47.4898 159.5,45.5C 159.437,44.3395 159.77,43.0062 160.5,41.5C 161.583,41.4606 162.583,41.1272 163.5,40.5C 164.135,43.099 165.135,45.4324 166.5,47.5 Z"/></g>
<g><path style="opacity:0.998" fill="#5bc0d0" d="M 90.5,38.5 C 94.3952,39.7304 96.3952,42.3971 96.5,46.5C 94.7675,48.7156 93.7675,51.3823 93.5,54.5C 91.9856,51.4721 89.9856,48.8054 87.5,46.5C 88.7251,45.8478 89.3917,44.6811 89.5,43C 89.4411,41.5643 89.1078,40.231 88.5,39C 89.0944,38.5357 89.7611,38.369 90.5,38.5 Z"/></g>
<g><path style="opacity:0.989" fill="#4ea9e1" d="M 96.5,46.5 C 99.0771,47.6899 99.9105,49.6899 99,52.5C 97.4157,53.8613 95.5824,54.528 93.5,54.5C 93.7675,51.3823 94.7675,48.7156 96.5,46.5 Z"/></g>
<g><path style="opacity:1" fill="#68e3a4" d="M 159.5,45.5 C 160.999,47.4898 161.832,49.8232 162,52.5C 162.671,51.7476 163.504,51.4142 164.5,51.5C 162.265,54.9414 159.598,55.2747 156.5,52.5C 155.01,49.1428 156.01,46.8095 159.5,45.5 Z"/></g>
<g><path style="opacity:0.92" fill="#000000" d="M 568.5,48.5 C 573.604,49.5955 578.104,51.9288 582,55.5C 595.168,74.1278 603.502,94.7945 607,117.5C 610.483,130.731 605.65,136.564 592.5,135C 590.667,133.833 589.167,132.333 588,130.5C 586.444,124.225 583.944,118.392 580.5,113C 572.927,106.829 564.427,104.995 555,107.5C 554.325,113.885 553.325,120.218 552,126.5C 549.05,135.373 543.217,137.873 534.5,134C 533.299,133.097 532.465,131.931 532,130.5C 531.173,121.065 531.84,111.731 534,102.5C 537.713,88.029 543.38,74.3623 551,61.5C 553.157,58.3443 555.657,55.511 558.5,53C 561.815,51.1702 565.149,49.6702 568.5,48.5 Z M 567.5,72.5 C 569.624,73.0312 571.124,74.3645 572,76.5C 574.41,81.3145 576.244,86.3145 577.5,91.5C 572.227,90.1817 566.893,89.1817 561.5,88.5C 561.523,86.0733 562.023,83.74 563,81.5C 565.038,78.7568 566.538,75.7568 567.5,72.5 Z"/></g>
<g><path style="opacity:0.911" fill="#000000" d="M 246.5,49.5 C 261.837,49.3334 277.17,49.5001 292.5,50C 300.591,54.7072 301.591,60.7072 295.5,68C 284.662,69.1083 273.828,69.9416 263,70.5C 262.888,73.2471 263.054,75.7471 263.5,78C 273.226,78.1084 282.893,78.7751 292.5,80C 296.671,83.8543 297.504,88.3543 295,93.5C 293.681,95.4875 291.848,96.6541 289.5,97C 280.833,97.3333 272.167,97.6667 263.5,98C 263.315,103.797 263.315,109.63 263.5,115.5C 273.839,115.334 284.172,115.5 294.5,116C 301.017,120.245 302.183,125.745 298,132.5C 296.581,133.46 295.081,134.293 293.5,135C 278.167,135.667 262.833,135.667 247.5,135C 245.152,134.654 243.319,133.487 242,131.5C 240.353,106.254 240.019,80.9207 241,55.5C 242.36,52.9774 244.193,50.9774 246.5,49.5 Z"/></g>
<g><path style="opacity:0.928" fill="#000000" d="M 320.5,49.5 C 338.681,47.8825 354.681,52.7159 368.5,64C 382.784,81.2307 385.284,100.064 376,120.5C 369.841,128.646 361.674,133.479 351.5,135C 340.167,135.667 328.833,135.667 317.5,135C 312.255,133.923 309.255,130.756 308.5,125.5C 309.323,102.543 309.823,79.5428 310,56.5C 312.404,52.4332 315.904,50.0999 320.5,49.5 Z M 330.5,69.5 C 353.537,72.8947 362.037,85.8947 356,108.5C 353.56,112.254 350.06,114.421 345.5,115C 340.511,115.499 335.511,115.666 330.5,115.5C 330.5,100.167 330.5,84.8333 330.5,69.5 Z"/></g>
<g><path style="opacity:0.912" fill="#000000" d="M 400.5,49.5 C 408.041,47.8522 413.208,50.5188 416,57.5C 414.624,71.9679 413.124,86.4679 411.5,101C 412.801,113.835 419.801,118.502 432.5,115C 439.27,109.06 441.436,101.56 439,92.5C 435.85,79.5535 435.184,66.5535 437,53.5C 441.546,49.2512 446.713,48.4179 452.5,51C 453.787,52.4095 454.954,53.9095 456,55.5C 457.274,67.5402 458.941,79.5402 461,91.5C 465.761,116.861 455.595,131.694 430.5,136C 419.178,136.92 408.845,134.253 399.5,128C 392.6,121.528 389.267,113.528 389.5,104C 390.855,91.1846 392.021,78.3513 393,65.5C 393.187,58.8887 395.687,53.5553 400.5,49.5 Z"/></g>
<g><path style="opacity:0.906" fill="#000000" d="M 480.5,49.5 C 487.918,47.792 492.751,50.4586 495,57.5C 495.5,76.8305 495.667,96.1638 495.5,115.5C 504.506,115.334 513.506,115.5 522.5,116C 529.271,119.646 530.771,124.813 527,131.5C 525.681,133.487 523.848,134.654 521.5,135C 509.167,135.667 496.833,135.667 484.5,135C 479.217,134.385 475.717,131.551 474,126.5C 473.333,104.167 473.333,81.8333 474,59.5C 474.932,55.2883 477.098,51.955 480.5,49.5 Z"/></g>
<g><path style="opacity:0.919" fill="#000000" d="M 625.5,49.5 C 637.505,49.3335 649.505,49.5001 661.5,50C 673.596,50.9278 679.596,57.4278 679.5,69.5C 679.445,77.2757 676.445,83.609 670.5,88.5C 682.045,98.3825 684.878,110.382 679,124.5C 675.084,130.403 669.584,133.903 662.5,135C 650.167,135.667 637.833,135.667 625.5,135C 623.101,134.269 620.935,133.102 619,131.5C 617.353,106.254 617.019,80.9207 618,55.5C 620.134,52.8474 622.634,50.8474 625.5,49.5 Z M 639.5,68.5 C 645.537,68.1707 651.537,68.5041 657.5,69.5C 658.967,72.862 658.634,76.0286 656.5,79C 650.843,79.4994 645.176,79.6661 639.5,79.5C 638.343,75.7839 638.343,72.1172 639.5,68.5 Z M 639.5,96.5 C 646.99,96.8307 653.49,99.4974 659,104.5C 661.62,109.527 660.453,113.36 655.5,116C 650.177,116.499 644.844,116.666 639.5,116.5C 639.442,109.82 639.442,103.153 639.5,96.5 Z"/></g>
<g><path style="opacity:0.997" fill="#5bc8cb" d="M 125.5,50.5 C 127.833,50.5 130.167,50.5 132.5,50.5C 133.427,64.1371 133.76,77.8038 133.5,91.5C 131.412,90.0605 129.079,89.3939 126.5,89.5C 127.058,88.2101 128.058,87.3768 129.5,87C 127.109,85.6914 127.109,84.6914 129.5,84C 128.756,81.1494 128.756,78.4828 129.5,76C 128.833,75.6667 128.167,75.3333 127.5,75C 128.833,74 128.833,73 127.5,72C 129.891,71.3086 129.891,70.3086 127.5,69C 128.167,68.6667 128.833,68.3333 129.5,68C 128.756,65.1494 128.756,62.4828 129.5,60C 128.833,59.6667 128.167,59.3333 127.5,59C 128.833,58 128.833,57 127.5,56C 128.167,55.6667 128.833,55.3333 129.5,55C 128.009,53.5862 126.675,52.0862 125.5,50.5 Z"/></g>
<g><path style="opacity:1" fill="#62d8bb" d="M 121.5,50.5 C 120.551,54.9779 120.218,59.3112 120.5,63.5C 116.307,63.8282 112.641,65.4949 109.5,68.5C 109.279,67.2652 108.612,66.2652 107.5,65.5C 107.742,62.681 107.742,59.681 107.5,56.5C 105.167,57.1667 102.833,57.8333 100.5,58.5C 106.771,54.2926 113.771,51.626 121.5,50.5 Z"/></g>
<g><path style="opacity:1" fill="#59c3d1" d="M 132.5,50.5 C 134.717,51.3686 137.05,51.702 139.5,51.5C 139.121,58.293 139.121,65.293 139.5,72.5C 139.461,79.4046 138.794,86.0712 137.5,92.5C 136.292,91.7659 134.959,91.4326 133.5,91.5C 133.76,77.8038 133.427,64.1371 132.5,50.5 Z"/></g>
<g><path style="opacity:0.998" fill="#56bdd7" d="M 139.5,51.5 C 142.096,52.0549 144.429,53.0549 146.5,54.5C 145.585,66.9359 145.418,79.6026 146,92.5C 146.513,93.5266 147.013,94.5266 147.5,95.5C 144.296,94.0991 140.963,93.0991 137.5,92.5C 138.794,86.0712 139.461,79.4046 139.5,72.5C 139.121,65.293 139.121,58.293 139.5,51.5 Z"/></g>
<g><path style="opacity:1" fill="#53b8dd" d="M 146.5,54.5 C 149.721,54.8961 152.388,56.2295 154.5,58.5C 153.85,58.8039 153.183,59.1373 152.5,59.5C 151.833,71.1667 151.167,82.8333 150.5,94.5C 149.817,94.8627 149.15,95.1961 148.5,95.5C 148.167,95.5 147.833,95.5 147.5,95.5C 147.013,94.5266 146.513,93.5266 146,92.5C 145.418,79.6026 145.585,66.9359 146.5,54.5 Z"/></g>
<g><path style="opacity:0.998" fill="#50b1e3" d="M 154.5,58.5 C 157.473,60.1468 160.14,62.1468 162.5,64.5C 161.178,64.67 160.011,64.3366 159,63.5C 158.833,64.1667 158.667,64.8333 158.5,65.5C 158.603,76.7524 158.936,88.0857 159.5,99.5C 155.889,97.7434 152.223,96.4101 148.5,95.5C 149.15,95.1961 149.817,94.8627 150.5,94.5C 151.167,82.8333 151.833,71.1667 152.5,59.5C 153.183,59.1373 153.85,58.8039 154.5,58.5 Z"/></g>
<g><path style="opacity:0.995" fill="#6ae7ac" d="M 109.5,68.5 C 105.044,71.1215 101.377,74.6215 98.5,79C 99.1079,79.8699 99.9412,80.3699 101,80.5C 102.981,79.3498 104.814,78.0165 106.5,76.5C 106.918,77.2216 107.584,77.7216 108.5,78C 107.554,82.1921 107.554,86.5254 108.5,91C 106.964,92.4681 106.63,93.9681 107.5,95.5C 102.869,96.0862 98.5362,97.4195 94.5,99.5C 93.689,88.576 93.189,77.576 93,66.5C 92.1841,67.8228 91.0174,68.4894 89.5,68.5C 90.6138,67.1147 91.6138,65.6147 92.5,64C 94.749,61.5885 97.4157,59.7551 100.5,58.5C 102.833,57.8333 105.167,57.1667 107.5,56.5C 107.742,59.681 107.742,62.681 107.5,65.5C 108.612,66.2652 109.279,67.2652 109.5,68.5 Z"/></g>
<g><path style="opacity:0.999" fill="#4dace7" d="M 162.5,64.5 C 163.401,65.2905 164.068,66.2905 164.5,67.5C 164.48,88.8607 164.48,110.527 164.5,132.5C 160.705,137.61 157.372,142.944 154.5,148.5C 153.5,148.5 152.5,148.5 151.5,148.5C 151.5,139.833 151.5,131.167 151.5,122.5C 154.416,123.811 156.916,123.145 159,120.5C 158.225,116.288 157.392,111.955 156.5,107.5C 157.246,106.264 157.579,104.93 157.5,103.5C 159.359,103.539 160.692,102.706 161.5,101C 160.956,100.283 160.289,99.7828 159.5,99.5C 158.936,88.0857 158.603,76.7524 158.5,65.5C 158.667,64.8333 158.833,64.1667 159,63.5C 160.011,64.3366 161.178,64.67 162.5,64.5 Z"/></g>
<g><path style="opacity:0.999" fill="#6fefa4" d="M 94.5,99.5 C 92.8958,100.287 92.2291,101.62 92.5,103.5C 93.5,103.5 94.5,103.5 95.5,103.5C 94.7122,114.121 94.2122,124.788 94,135.5C 93.5831,134.244 92.7498,133.577 91.5,133.5C 88.7828,131.091 86.7828,128.091 85.5,124.5C 87.12,123.159 88.12,121.326 88.5,119C 87.3318,117.594 87.6652,116.428 89.5,115.5C 89.5,104.833 89.5,94.1667 89.5,83.5C 88.1028,81.0182 87.2694,78.3516 87,75.5C 85.9609,76.7101 84.7942,77.7101 83.5,78.5C 85.5165,75.1262 87.5165,71.7929 89.5,68.5C 91.0174,68.4894 92.1841,67.8228 93,66.5C 93.189,77.576 93.689,88.576 94.5,99.5 Z"/></g>
<g><path style="opacity:0.998" fill="#5fcfc4" d="M 121.5,50.5 C 122.833,50.5 124.167,50.5 125.5,50.5C 126.675,52.0862 128.009,53.5862 129.5,55C 128.833,55.3333 128.167,55.6667 127.5,56C 128.833,57 128.833,58 127.5,59C 128.167,59.3333 128.833,59.6667 129.5,60C 128.756,62.4828 128.756,65.1494 129.5,68C 128.833,68.3333 128.167,68.6667 127.5,69C 129.891,70.3086 129.891,71.3086 127.5,72C 128.833,73 128.833,74 127.5,75C 128.167,75.3333 128.833,75.6667 129.5,76C 128.756,78.4828 128.756,81.1494 129.5,84C 127.109,84.6914 127.109,85.6914 129.5,87C 128.058,87.3768 127.058,88.2101 126.5,89.5C 124.035,89.767 121.701,90.4336 119.5,91.5C 119.881,90.0689 120.881,89.2355 122.5,89C 120.194,82.0621 119.861,74.8954 121.5,67.5C 122.995,67.5852 123.995,66.9185 124.5,65.5C 123.68,63.8888 122.346,63.2222 120.5,63.5C 120.218,59.3112 120.551,54.9779 121.5,50.5 Z"/></g>
<g><path style="opacity:1" fill="#4aaae2" d="M 194.5,66.5 C 196.265,65.5386 198.265,65.2053 200.5,65.5C 200.663,67.8568 200.497,70.1902 200,72.5C 198.644,73.3802 197.144,73.7135 195.5,73.5C 195.802,70.9407 195.468,68.6074 194.5,66.5 Z"/></g>
<g><path style="opacity:1" fill="#5dc7c6" d="M 63.5,68.5 C 65.698,68.1201 67.3646,68.7868 68.5,70.5C 67.5386,72.2646 67.2053,74.2646 67.5,76.5C 65.9008,77.562 64.2341,77.562 62.5,76.5C 62.4013,73.7628 62.7347,71.0961 63.5,68.5 Z"/></g>
<g><path style="opacity:1" fill="#59c2ce" d="M 194.5,66.5 C 195.468,68.6074 195.802,70.9407 195.5,73.5C 194.077,75.5449 192.077,76.5449 189.5,76.5C 189.5,73.5 189.5,70.5 189.5,67.5C 191.398,68.7345 193.065,68.4011 194.5,66.5 Z"/></g>
<g><path style="opacity:1" fill="#4ba6ee" d="M 164.5,67.5 C 166.326,69.1475 167.66,71.1475 168.5,73.5C 165.93,75.1766 165.93,77.0099 168.5,79C 168.572,81.176 168.238,83.176 167.5,85C 169.891,86.3086 169.891,87.3086 167.5,88C 169.891,88.6914 169.891,89.6914 167.5,91C 170.167,91.6667 170.167,92.3333 167.5,93C 167.5,95 167.5,97 167.5,99C 170.167,99.6667 170.167,100.333 167.5,101C 169.891,102.309 169.891,103.309 167.5,104C 169.891,104.691 169.891,105.691 167.5,107C 170.167,107.667 170.167,108.333 167.5,109C 167.928,113.956 168.261,119.122 168.5,124.5C 168.47,127.852 167.137,130.518 164.5,132.5C 164.48,110.527 164.48,88.8607 164.5,67.5 Z"/></g>
<g><path style="opacity:0.506" fill="#69e0ad" d="M 63.5,68.5 C 62.7347,71.0961 62.4013,73.7628 62.5,76.5C 61.6851,75.5707 60.8518,74.5707 60,73.5C 55.4404,74.2748 53.4404,72.2748 54,67.5C 55.2419,66.1279 56.7419,65.1279 58.5,64.5C 60.1856,65.8569 61.8523,67.1902 63.5,68.5 Z"/></g>
<g><path style="opacity:0.998" fill="#64dab9" d="M 121.5,67.5 C 119.861,74.8954 120.194,82.0621 122.5,89C 120.881,89.2355 119.881,90.0689 119.5,91.5C 115.153,91.9627 111.153,93.296 107.5,95.5C 106.63,93.9681 106.964,92.4681 108.5,91C 107.554,86.5254 107.554,82.1921 108.5,78C 107.584,77.7216 106.918,77.2216 106.5,76.5C 110.667,72.2441 115.667,69.2441 121.5,67.5 Z"/></g>
<g><path style="opacity:1" fill="#67e1a5" d="M 183.5,71.5 C 185.148,73.4559 185.815,75.7892 185.5,78.5C 182.952,81.3264 180.785,80.9931 179,77.5C 177.852,73.4531 179.352,71.4531 183.5,71.5 Z"/></g>
<g><path style="opacity:0.999" fill="#54b2db" d="M 68.5,70.5 C 71.0092,71.1131 73.5092,71.7798 76,72.5C 78.2438,79.0906 76.0771,81.5906 69.5,80C 68.695,78.8873 68.0283,77.7206 67.5,76.5C 67.2053,74.2646 67.5386,72.2646 68.5,70.5 Z"/></g>
<g><path style="opacity:0.978" fill="#64d5bb" d="M 189.5,67.5 C 189.5,70.5 189.5,73.5 189.5,76.5C 187.938,76.7329 186.605,77.3995 185.5,78.5C 185.815,75.7892 185.148,73.4559 183.5,71.5C 185.488,70.2555 187.488,68.9222 189.5,67.5 Z"/></g>
<g><path style="opacity:0.999" fill="#71f49e" d="M 85.5,124.5 C 78.317,109.501 77.6503,94.1674 83.5,78.5C 84.7942,77.7101 85.9609,76.7101 87,75.5C 87.2694,78.3516 88.1028,81.0182 89.5,83.5C 89.5,94.1667 89.5,104.833 89.5,115.5C 87.6652,116.428 87.3318,117.594 88.5,119C 88.12,121.326 87.12,123.159 85.5,124.5 Z"/></g>
<g><path style="opacity:0.997" fill="#48a1f2" d="M 168.5,73.5 C 173.061,81.688 175.727,90.5213 176.5,100C 175.406,106.879 173.906,113.713 172,120.5C 171.34,122.324 170.173,123.657 168.5,124.5C 168.261,119.122 167.928,113.956 167.5,109C 170.167,108.333 170.167,107.667 167.5,107C 169.891,105.691 169.891,104.691 167.5,104C 169.891,103.309 169.891,102.309 167.5,101C 170.167,100.333 170.167,99.6667 167.5,99C 167.5,97 167.5,95 167.5,93C 170.167,92.3333 170.167,91.6667 167.5,91C 169.891,89.6914 169.891,88.6914 167.5,88C 169.891,87.3086 169.891,86.3086 167.5,85C 168.238,83.176 168.572,81.176 168.5,79C 165.93,77.0099 165.93,75.1766 168.5,73.5 Z"/></g>
<g><path style="opacity:1" fill="#59c5cd" d="M 128.5,95.5 C 130.735,95.2053 132.735,95.5386 134.5,96.5C 133.5,96.5 132.5,96.5 131.5,96.5C 131.223,99.4475 131.556,102.281 132.5,105C 130.937,105.759 129.937,106.926 129.5,108.5C 128.5,108.5 127.5,108.5 126.5,108.5C 127.605,104.289 127.605,100.122 126.5,96C 127.094,95.5357 127.761,95.369 128.5,95.5 Z"/></g>
<g><path style="opacity:1" fill="#64d8ab" d="M 118.5,96.5 C 119.117,96.6107 119.617,96.944 120,97.5C 120.805,100.696 120.638,103.696 119.5,106.5C 114.589,105.442 109.922,103.775 105.5,101.5C 109.429,99.0453 113.762,97.3786 118.5,96.5 Z"/></g>
<g><path style="opacity:1" fill="#5ecfc3" d="M 128.5,95.5 C 127.761,95.369 127.094,95.5357 126.5,96C 127.605,100.122 127.605,104.289 126.5,108.5C 123.933,108.279 121.599,107.612 119.5,106.5C 120.638,103.696 120.805,100.696 120,97.5C 119.617,96.944 119.117,96.6107 118.5,96.5C 121.77,94.8396 125.103,94.5062 128.5,95.5 Z"/></g>
<g><path style="opacity:1" fill="#51b1d9" d="M 134.5,96.5 C 139.238,97.3791 143.572,99.0457 147.5,101.5C 141.535,103.832 135.535,106.165 129.5,108.5C 129.937,106.926 130.937,105.759 132.5,105C 131.556,102.281 131.223,99.4475 131.5,96.5C 132.5,96.5 133.5,96.5 134.5,96.5 Z"/></g>
<g><path style="opacity:1" fill="#6be9ab" d="M 95.5,103.5 C 97.2838,103.893 98.9505,104.559 100.5,105.5C 101.484,119.883 101.484,134.216 100.5,148.5C 97.7681,143.375 94.7681,138.375 91.5,133.5C 92.7498,133.577 93.5831,134.244 94,135.5C 94.2122,124.788 94.7122,114.121 95.5,103.5 Z"/></g>
<g><path style="opacity:1" fill="#4da9e1" d="M 65.5,113.5 C 64.8505,111.565 64.5172,109.565 64.5,107.5C 68.4195,104.313 71.0861,105.147 72.5,110C 71.502,113.832 69.1686,114.999 65.5,113.5 Z"/></g>
<g><path style="opacity:0.998" fill="#68e2b2" d="M 100.5,105.5 C 102.167,106.167 103.833,106.833 105.5,107.5C 106.187,113.623 106.853,119.79 107.5,126C 106.3,127.703 106.633,129.203 108.5,130.5C 108.288,140.624 107.954,150.791 107.5,161C 108.244,162.815 108.911,164.648 109.5,166.5C 109.5,166.833 109.5,167.167 109.5,167.5C 107.825,165.998 105.992,164.665 104,163.5C 103.257,158.361 102.09,153.361 100.5,148.5C 101.484,134.216 101.484,119.883 100.5,105.5 Z"/></g>
<g><path style="opacity:1" fill="#5bc3cd" d="M 59.5,107.5 C 61.1667,107.5 62.8333,107.5 64.5,107.5C 64.5172,109.565 64.8505,111.565 65.5,113.5C 63.8174,114.661 61.984,115.661 60,116.5C 59.2352,116.43 58.7352,116.097 58.5,115.5C 59.4731,113.052 59.8064,110.385 59.5,107.5 Z"/></g>
<g><path style="opacity:0.999" fill="#52b6db" d="M 151.5,122.5 C 151.5,131.167 151.5,139.833 151.5,148.5C 152.5,148.5 153.5,148.5 154.5,148.5C 153.247,153.513 151.914,158.513 150.5,163.5C 148.736,165.278 146.736,166.611 144.5,167.5C 145.63,154.212 145.797,140.878 145,127.5C 144.31,128.738 143.81,128.738 143.5,127.5C 143.709,126.078 144.209,124.745 145,123.5C 145.246,118.008 145.413,112.675 145.5,107.5C 147.752,106.667 149.919,106.667 152,107.5C 153.226,111.625 152.393,115.125 149.5,118C 150.414,119.406 151.08,120.906 151.5,122.5 Z"/></g>
<g><path style="opacity:1" fill="#60d1c1" d="M 190.5,107.5 C 192.167,107.5 193.833,107.5 195.5,107.5C 195.5,110.167 195.5,112.833 195.5,115.5C 193.405,115.937 191.738,114.937 190.5,112.5C 190.5,110.833 190.5,109.167 190.5,107.5 Z"/></g>
<g><path style="opacity:1" fill="#67d5be" d="M 59.5,107.5 C 59.8064,110.385 59.4731,113.052 58.5,115.5C 58.1667,115.5 57.8333,115.5 57.5,115.5C 55.8516,113.544 55.1849,111.211 55.5,108.5C 56.7079,107.766 58.0413,107.433 59.5,107.5 Z"/></g>
<g><path style="opacity:1" fill="#68e3a4" d="M 55.5,108.5 C 55.1849,111.211 55.8516,113.544 57.5,115.5C 54.8872,116.435 52.2205,116.602 49.5,116C 46.8418,112.112 47.8418,109.278 52.5,107.5C 53.4168,108.127 54.4168,108.461 55.5,108.5 Z"/></g>
<g><path style="opacity:0.995" fill="#53b8d4" d="M 195.5,107.5 C 197.864,108.529 200.197,108.529 202.5,107.5C 204.171,107.668 205.504,108.335 206.5,109.5C 205.167,109.5 203.833,109.5 202.5,109.5C 202.5,111.5 202.5,113.5 202.5,115.5C 203.833,115.5 205.167,115.5 206.5,115.5C 202.727,116.423 199.061,116.423 195.5,115.5C 195.5,112.833 195.5,110.167 195.5,107.5 Z"/></g>
<g><path style="opacity:0.998" fill="#4ba2e8" d="M 206.5,109.5 C 207.641,111.451 207.641,113.451 206.5,115.5C 205.167,115.5 203.833,115.5 202.5,115.5C 202.5,113.5 202.5,111.5 202.5,109.5C 203.833,109.5 205.167,109.5 206.5,109.5 Z"/></g>
<g><path style="opacity:0.757" fill="#69e3a2" d="M 190.5,107.5 C 190.5,109.167 190.5,110.833 190.5,112.5C 184.633,115.555 182.299,113.555 183.5,106.5C 185.95,106.298 188.283,106.631 190.5,107.5 Z"/></g>
<g><path style="opacity:1" fill="#53b6db" d="M 136.5,111.5 C 136.5,115.5 136.5,119.5 136.5,123.5C 137.5,123.5 138.5,123.5 139.5,123.5C 136.431,126.19 132.764,127.523 128.5,127.5C 128.5,122.833 128.5,118.167 128.5,113.5C 130.913,111.949 133.579,111.283 136.5,111.5 Z"/></g>
<g><path style="opacity:1" fill="#65dcb4" d="M 118.5,111.5 C 120.216,111.629 121.883,111.962 123.5,112.5C 123.779,117.595 123.445,122.595 122.5,127.5C 119.911,127.539 117.911,126.539 116.5,124.5C 117.5,124.5 118.5,124.5 119.5,124.5C 119.769,120.069 119.436,115.735 118.5,111.5 Z"/></g>
<g><path style="opacity:1" fill="#5ccbc5" d="M 123.5,112.5 C 125.042,113.301 126.708,113.634 128.5,113.5C 128.5,118.167 128.5,122.833 128.5,127.5C 126.5,127.5 124.5,127.5 122.5,127.5C 123.445,122.595 123.779,117.595 123.5,112.5 Z"/></g>
<g><path style="opacity:1" fill="#47a3eb" d="M 139.5,123.5 C 138.5,123.5 137.5,123.5 136.5,123.5C 136.5,119.5 136.5,115.5 136.5,111.5C 137.568,110.566 138.901,110.232 140.5,110.5C 140.818,115.032 140.485,119.366 139.5,123.5 Z"/></g>
<g><path style="opacity:1" fill="#6deca5" d="M 118.5,111.5 C 119.436,115.735 119.769,120.069 119.5,124.5C 118.5,124.5 117.5,124.5 116.5,124.5C 114.641,124.539 113.308,123.706 112.5,122C 113.027,118.397 113.36,114.564 113.5,110.5C 115.216,110.629 116.883,110.962 118.5,111.5 Z"/></g>
<g><path style="opacity:1" fill="#56bdd6" d="M 143.5,127.5 C 143.81,128.738 144.31,128.738 145,127.5C 145.797,140.878 145.63,154.212 144.5,167.5C 143.07,168.537 141.403,169.204 139.5,169.5C 139.449,157.081 139.449,144.414 139.5,131.5C 138.5,131.5 137.5,131.5 136.5,131.5C 138.336,129.412 140.669,128.079 143.5,127.5 Z"/></g>
<g><path style="opacity:0.998" fill="#67ddb7" d="M 105.5,107.5 C 106.5,107.5 107.5,107.5 108.5,107.5C 108.334,113.842 108.5,120.175 109,126.5C 110.302,127.085 111.469,127.751 112.5,128.5C 113.777,141.48 113.777,154.48 112.5,167.5C 111.583,166.873 110.583,166.539 109.5,166.5C 108.911,164.648 108.244,162.815 107.5,161C 107.954,150.791 108.288,140.624 108.5,130.5C 106.633,129.203 106.3,127.703 107.5,126C 106.853,119.79 106.187,113.623 105.5,107.5 Z"/></g>
<g><path style="opacity:0.997" fill="#62d6bd" d="M 112.5,128.5 C 114.798,130.461 117.465,131.461 120.5,131.5C 120.333,144.171 120.5,156.838 121,169.5C 121.383,170.056 121.883,170.389 122.5,170.5C 122.5,170.833 122.5,171.167 122.5,171.5C 117.905,170.968 113.571,169.635 109.5,167.5C 109.5,167.167 109.5,166.833 109.5,166.5C 110.583,166.539 111.583,166.873 112.5,167.5C 113.777,154.48 113.777,141.48 112.5,128.5 Z"/></g>
<g><path style="opacity:1" fill="#59c3d0" d="M 133.5,131.5 C 134.5,131.5 135.5,131.5 136.5,131.5C 137.5,131.5 138.5,131.5 139.5,131.5C 139.449,144.414 139.449,157.081 139.5,169.5C 136.042,170.957 132.376,171.957 128.5,172.5C 129.552,170.744 131.219,170.077 133.5,170.5C 133.5,157.5 133.5,144.5 133.5,131.5 Z"/></g>
<g><path style="opacity:1" fill="#5fd0c4" d="M 120.5,131.5 C 121.167,131.833 121.833,132.167 122.5,132.5C 123.531,133.249 124.698,133.915 126,134.5C 126.5,146.495 126.667,158.495 126.5,170.5C 125.167,170.5 123.833,170.5 122.5,170.5C 121.883,170.389 121.383,170.056 121,169.5C 120.5,156.838 120.333,144.171 120.5,131.5 Z"/></g>
<g><path style="opacity:0.999" fill="#5cc9ca" d="M 133.5,131.5 C 133.5,144.5 133.5,157.5 133.5,170.5C 131.219,170.077 129.552,170.744 128.5,172.5C 126.435,172.483 124.435,172.15 122.5,171.5C 122.5,171.167 122.5,170.833 122.5,170.5C 123.833,170.5 125.167,170.5 126.5,170.5C 126.667,158.495 126.5,146.495 126,134.5C 124.698,133.915 123.531,133.249 122.5,132.5C 126.234,132.677 129.901,132.344 133.5,131.5 Z"/></g>
<g><path style="opacity:0.99" fill="#4ea6e5" d="M 84.5,136.5 C 87.0047,138.186 87.838,140.519 87,143.5C 86.3292,144.252 85.4959,144.586 84.5,144.5C 83.2749,143.848 82.6083,142.681 82.5,141C 82.7586,139.213 83.4253,137.713 84.5,136.5 Z"/></g>
<g><path style="opacity:1" fill="#64dea5" d="M 175.5,137.5 C 174.833,139.833 174.167,142.167 173.5,144.5C 167.561,144.456 166.228,141.956 169.5,137C 171.598,136.322 173.598,136.489 175.5,137.5 Z"/></g>
<g><path style="opacity:1" fill="#63d4b5" d="M 74.5,143.5 C 75.4682,145.607 75.8016,147.941 75.5,150.5C 75.2019,155.461 72.8686,157.128 68.5,155.5C 69.5,155.5 70.5,155.5 71.5,155.5C 71.5,152.833 71.5,150.167 71.5,147.5C 71.5544,145.368 72.5544,144.035 74.5,143.5 Z"/></g>
<g><path style="opacity:0.469" fill="#56bcce" d="M 179.5,141.5 C 181.429,143.06 182.762,145.06 183.5,147.5C 183.06,149.844 182.06,151.844 180.5,153.5C 179.596,152.791 179.263,151.791 179.5,150.5C 178.209,150.737 177.209,150.404 176.5,149.5C 178.232,147.284 179.232,144.618 179.5,141.5 Z"/></g>
<g><path style="opacity:0.922" fill="#59bcd3" d="M 84.5,136.5 C 83.4253,137.713 82.7586,139.213 82.5,141C 82.6083,142.681 83.2749,143.848 84.5,144.5C 82.0568,145.501 80.3901,147.335 79.5,150C 78.2068,150.49 76.8734,150.657 75.5,150.5C 75.8016,147.941 75.4682,145.607 74.5,143.5C 76.8237,142.141 78.4904,140.141 79.5,137.5C 81.0453,136.548 82.712,136.215 84.5,136.5 Z"/></g>
<g><path style="opacity:1" fill="#60d1bf" d="M 175.5,137.5 C 176.434,138.568 176.768,139.901 176.5,141.5C 177.5,141.5 178.5,141.5 179.5,141.5C 179.232,144.618 178.232,147.284 176.5,149.5C 174.273,148.599 173.273,146.933 173.5,144.5C 174.167,142.167 174.833,139.833 175.5,137.5 Z"/></g>
<g><path style="opacity:1" fill="#4ba6de" d="M 183.5,147.5 C 188.068,147.083 189.568,149.083 188,153.5C 185.379,156.14 182.879,156.14 180.5,153.5C 182.06,151.844 183.06,149.844 183.5,147.5 Z"/></g>
<g><path style="opacity:1" fill="#68e69f" d="M 71.5,147.5 C 71.5,150.167 71.5,152.833 71.5,155.5C 70.5,155.5 69.5,155.5 68.5,155.5C 66.7615,153.881 66.2615,151.881 67,149.5C 68.049,147.893 69.549,147.227 71.5,147.5 Z"/></g>
<g><path style="opacity:0.74" fill="#020202" d="M 292.5,161.5 C 295.522,161.804 298.522,162.304 301.5,163C 302.931,165.538 302.264,167.372 299.5,168.5C 297.44,167.472 295.44,167.472 293.5,168.5C 295.834,170.441 298.334,172.107 301,173.5C 304.362,181.103 301.862,185.103 293.5,185.5C 290.3,185.384 287.633,184.217 285.5,182C 285.954,180.378 286.954,179.212 288.5,178.5C 298.76,179.699 299.093,178.532 289.5,175C 284.997,169.164 285.997,164.664 292.5,161.5 Z"/></g>
<g><path style="opacity:0.717" fill="#010101" d="M 316.5,161.5 C 323.7,160.547 327.2,163.547 327,170.5C 325.867,172.211 324.367,172.711 322.5,172C 319.579,164.852 317.246,165.185 315.5,173C 315.439,175.261 316.106,177.261 317.5,179C 320.546,178.686 323.546,178.853 326.5,179.5C 327.347,181.061 327.014,182.561 325.5,184C 311.931,186.76 306.764,181.26 310,167.5C 311.436,164.558 313.603,162.558 316.5,161.5 Z"/></g>
<g><path style="opacity:0.718" fill="#000000" d="M 336.5,161.5 C 337.93,161.421 339.264,161.754 340.5,162.5C 341.48,165.086 341.813,167.753 341.5,170.5C 343.604,170.799 345.604,170.466 347.5,169.5C 345.17,163.858 346.837,161.525 352.5,162.5C 353.833,169.833 353.833,177.167 352.5,184.5C 350.958,185.747 349.458,185.747 348,184.5C 347.503,181.854 347.336,179.187 347.5,176.5C 345.5,176.5 343.5,176.5 341.5,176.5C 341.5,179.167 341.5,181.833 341.5,184.5C 339.5,184.5 337.5,184.5 335.5,184.5C 335.201,176.747 335.534,169.08 336.5,161.5 Z"/></g>
<g><path style="opacity:0.698" fill="#000000" d="M 368.5,161.5 C 373.739,160.959 377.572,162.959 380,167.5C 381.54,173.715 380.373,179.215 376.5,184C 369.61,186.824 364.443,184.991 361,178.5C 358.679,170.489 361.179,164.823 368.5,161.5 Z M 369.5,166.5 C 373.083,167.422 374.75,169.756 374.5,173.5C 374.916,176.667 373.75,179.001 371,180.5C 366.898,176.344 366.398,171.677 369.5,166.5 Z"/></g>
<g><path style="opacity:0.71" fill="#000000" d="M 394.5,161.5 C 398.059,161.408 401.392,162.241 404.5,164C 408.442,170.221 408.442,176.388 404.5,182.5C 400.482,185.67 396.149,186.17 391.5,184C 389.513,182.681 388.346,180.848 388,178.5C 387.209,174.074 387.543,169.741 389,165.5C 390.812,164.023 392.645,162.69 394.5,161.5 Z M 396.5,166.5 C 398.017,166.511 399.184,167.177 400,168.5C 400.499,172.152 400.665,175.818 400.5,179.5C 397.26,181.134 395.094,180.134 394,176.5C 392.861,172.579 393.695,169.246 396.5,166.5 Z"/></g>
<g><path style="opacity:0.84" fill="#020202" d="M 416.5,161.5 C 418.582,161.624 420.082,162.624 421,164.5C 421.499,169.489 421.666,174.489 421.5,179.5C 424.167,179.5 426.833,179.5 429.5,179.5C 429.5,181.167 429.5,182.833 429.5,184.5C 424.833,184.5 420.167,184.5 415.5,184.5C 413.877,176.595 414.21,168.929 416.5,161.5 Z"/></g>
<g><path style="opacity:0.742" fill="#010101" d="M 474.5,161.5 C 475.583,161.539 476.583,161.873 477.5,162.5C 478.329,167.802 478.829,173.136 479,178.5C 481.719,179.444 484.552,179.777 487.5,179.5C 487.714,181.144 487.38,182.644 486.5,184C 482.179,184.499 477.846,184.666 473.5,184.5C 472.447,177.536 472.28,170.536 473,163.5C 473.717,162.956 474.217,162.289 474.5,161.5 Z"/></g>
<g><path style="opacity:0.741" fill="#020202" d="M 501.5,161.5 C 503.582,161.472 505.416,162.139 507,163.5C 509.635,170.38 511.802,177.38 513.5,184.5C 509.57,186.034 507.237,184.701 506.5,180.5C 504.167,180.5 501.833,180.5 499.5,180.5C 499.594,183.541 498.094,185.207 495,185.5C 494.009,184.57 493.509,183.404 493.5,182C 495.531,176.241 497.364,170.408 499,164.5C 500.045,163.627 500.878,162.627 501.5,161.5 Z M 502.5,169.5 C 504.074,171.102 504.741,173.102 504.5,175.5C 503.5,175.5 502.5,175.5 501.5,175.5C 501.833,173.5 502.167,171.5 502.5,169.5 Z"/></g>
<g><path style="opacity:0.691" fill="#000000" d="M 569.5,161.5 C 581.226,161.898 585.392,167.898 582,179.5C 578.148,185.574 572.982,186.907 566.5,183.5C 560.471,175.054 561.471,167.721 569.5,161.5 Z M 571.5,166.5 C 575.083,167.422 576.75,169.756 576.5,173.5C 576.916,176.667 575.75,179.001 573,180.5C 568.994,176.279 568.494,171.612 571.5,166.5 Z"/></g>
<g><path style="opacity:0.747" fill="#040404" d="M 618.5,161.5 C 623.662,162.1 626.329,165.1 626.5,170.5C 627.692,168.258 628.692,165.925 629.5,163.5C 631.765,162.353 634.098,162.186 636.5,163C 638.189,170.086 638.522,177.253 637.5,184.5C 635.694,185.859 634.194,185.525 633,183.5C 632.667,179.833 632.333,176.167 632,172.5C 631.163,175.365 630.33,178.198 629.5,181C 627.421,181.808 625.421,181.641 623.5,180.5C 622.917,178.998 622.084,177.665 621,176.5C 620.503,179.146 620.336,181.813 620.5,184.5C 617.226,186.247 615.226,185.247 614.5,181.5C 615.137,175.995 615.803,170.495 616.5,165C 616.862,163.566 617.528,162.399 618.5,161.5 Z"/></g>
<g><path style="opacity:0.711" fill="#010101" d="M 449.5,162.5 C 453.514,162.334 457.514,162.501 461.5,163C 462.931,163.465 464.097,164.299 465,165.5C 467.272,173.992 464.105,177.992 455.5,177.5C 455.5,179.833 455.5,182.167 455.5,184.5C 452.921,184.917 450.754,184.25 449,182.5C 448.208,175.753 448.374,169.086 449.5,162.5 Z M 455.5,167.5 C 460.644,168.812 460.811,170.812 456,173.5C 455.505,171.527 455.338,169.527 455.5,167.5 Z"/></g>
<g><path style="opacity:0.651" fill="#000000" d="M 518.5,162.5 C 523.844,162.334 529.177,162.501 534.5,163C 535.517,164.049 535.684,165.216 535,166.5C 533.053,167.11 531.219,167.943 529.5,169C 530.833,174 530.833,179 529.5,184C 527.559,184.743 525.726,184.576 524,183.5C 523.501,178.177 523.334,172.844 523.5,167.5C 518.58,168.585 516.913,166.918 518.5,162.5 Z"/></g>
<g><path style="opacity:0.683" fill="#010101" d="M 542.5,162.5 C 547.179,162.334 551.845,162.501 556.5,163C 557.833,164.333 557.833,165.667 556.5,167C 553.854,167.497 551.187,167.664 548.5,167.5C 548.5,168.833 548.5,170.167 548.5,171.5C 550.5,171.5 552.5,171.5 554.5,171.5C 554.5,173.167 554.5,174.833 554.5,176.5C 552.5,176.5 550.5,176.5 548.5,176.5C 548.5,179.167 548.5,181.833 548.5,184.5C 545.921,184.917 543.754,184.25 542,182.5C 541.208,175.753 541.374,169.086 542.5,162.5 Z"/></g>
<g><path style="opacity:0.729" fill="#010101" d="M 590.5,162.5 C 595.866,162.042 601.033,162.709 606,164.5C 606.99,168.444 606.49,172.111 604.5,175.5C 606.105,178.314 607.105,181.314 607.5,184.5C 605.774,184.815 604.107,184.981 602.5,185C 601.026,181.864 599.192,179.03 597,176.5C 596.503,179.146 596.336,181.813 596.5,184.5C 594.5,184.5 592.5,184.5 590.5,184.5C 590.5,177.167 590.5,169.833 590.5,162.5 Z M 597.5,166.5 C 599.759,167.344 600.759,169.011 600.5,171.5C 599.167,171.5 597.833,171.5 596.5,171.5C 596.366,169.708 596.699,168.042 597.5,166.5 Z"/></g>
<g><path style="opacity:0.995" fill="#6ae8a1" d="M 114.5,172.5 C 114.721,175.279 114.388,177.946 113.5,180.5C 109.419,178.909 106.085,176.409 103.5,173C 104.058,170.942 105.391,169.775 107.5,169.5C 110.034,170.273 112.368,171.273 114.5,172.5 Z"/></g>
<g><path style="opacity:0.998" fill="#4dabdf" d="M 135.5,181.5 C 136.417,178.995 136.417,176.662 135.5,174.5C 139.243,172.467 143.243,170.8 147.5,169.5C 151.793,170.582 152.46,172.749 149.5,176C 145.356,179.242 140.689,181.075 135.5,181.5 Z"/></g>
<g><path style="opacity:0.998" fill="#62d7bb" d="M 114.5,172.5 C 117.789,173.374 121.123,174.041 124.5,174.5C 126.65,176.922 126.983,179.589 125.5,182.5C 121.606,181.407 117.606,180.74 113.5,180.5C 114.388,177.946 114.721,175.279 114.5,172.5 Z"/></g>
<g><path style="opacity:0.995" fill="#57c0cd" d="M 124.5,174.5 C 128.167,174.5 131.833,174.5 135.5,174.5C 136.417,176.662 136.417,178.995 135.5,181.5C 132.167,181.833 128.833,182.167 125.5,182.5C 126.983,179.589 126.65,176.922 124.5,174.5 Z"/></g>
<g><path style="opacity:0.997" fill="#6be9a2" d="M 114.5,183.5 C 114.946,186.01 114.28,188.01 112.5,189.5C 108.457,189.134 105.457,187.134 103.5,183.5C 104.5,181.833 105.833,180.5 107.5,179.5C 110.059,180.608 112.392,181.941 114.5,183.5 Z"/></g>
<g><path style="opacity:1" fill="#47a1e7" d="M 142.5,189.5 C 142.5,187.167 142.5,184.833 142.5,182.5C 145.683,179.705 148.683,179.872 151.5,183C 149.757,186.91 146.757,189.076 142.5,189.5 Z"/></g>
<g><path style="opacity:1" fill="#64dbb5" d="M 114.5,183.5 C 116.415,183.216 118.081,183.549 119.5,184.5C 120.209,185.404 121.209,185.737 122.5,185.5C 121.932,188.588 121.932,191.588 122.5,194.5C 122.199,196.422 121.533,198.088 120.5,199.5C 117.343,196.496 114.676,193.163 112.5,189.5C 114.28,188.01 114.946,186.01 114.5,183.5 Z"/></g>
<g><path style="opacity:1" fill="#52b5db" d="M 142.5,182.5 C 142.5,184.833 142.5,187.167 142.5,189.5C 140.662,193.173 138.329,196.507 135.5,199.5C 134.909,198.849 134.243,198.182 133.5,197.5C 134.433,193.571 134.766,189.571 134.5,185.5C 136.38,185.771 137.713,185.104 138.5,183.5C 139.959,183.567 141.292,183.234 142.5,182.5 Z"/></g>
<g><path style="opacity:0.994" fill="#59c1ce" d="M 138.5,183.5 C 137.713,185.104 136.38,185.771 134.5,185.5C 134.766,189.571 134.433,193.571 133.5,197.5C 134.243,198.182 134.909,198.849 135.5,199.5C 133.833,200.167 132.167,200.833 130.5,201.5C 130.003,198.916 130.336,196.249 131.5,193.5C 130.791,192.596 129.791,192.263 128.5,192.5C 127.735,189.904 127.401,187.237 127.5,184.5C 131.234,184.677 134.901,184.344 138.5,183.5 Z"/></g>
<g><path style="opacity:0.994" fill="#5fcec1" d="M 119.5,184.5 C 122.167,184.5 124.833,184.5 127.5,184.5C 127.401,187.237 127.735,189.904 128.5,192.5C 127.127,192.343 125.793,192.51 124.5,193C 126.667,194.723 129,194.89 131.5,193.5C 130.336,196.249 130.003,198.916 130.5,201.5C 126.84,201.841 123.507,201.175 120.5,199.5C 121.533,198.088 122.199,196.422 122.5,194.5C 121.932,191.588 121.932,188.588 122.5,185.5C 121.209,185.737 120.209,185.404 119.5,184.5 Z"/></g>
</svg>
